<svg xmlns="http://www.w3.org/2000/svg" width="25.603" height="26" viewBox="0 0 25.603 26">
  <g id="chat" transform="translate(-1.366 2)">
    <g id="Group_122" data-name="Group 122" transform="translate(3.366)">
      <g id="Path_372" data-name="Path 372" transform="translate(-3.366)" fill="none">
        <path d="M14.218,0h-.035A10.793,10.793,0,0,0,5.718,17.518l-1.574,3.66a.587.587,0,0,0,.307.772.6.6,0,0,0,.336.041l5.771-1.014a10.4,10.4,0,0,0,3.6.625A10.8,10.8,0,0,0,14.218,0Zm-3.7,8.641H13.7a.589.589,0,1,1,0,1.179H10.516a.589.589,0,1,1,0-1.179Zm7.309,4.126H10.516a.589.589,0,0,1,0-1.179h7.309a.589.589,0,1,1,0,1.179Z" stroke="none"/>
        <path d="M 14.18231105804443 0 C 8.217130661010742 0 3.366001129150391 4.851129531860352 3.366001129150391 10.81631946563721 C 3.366001129150391 13.25071907043457 4.197111129760742 15.61439895629883 5.71788215637207 17.51830863952637 L 4.144062042236328 21.17875862121582 C 4.01439094543457 21.47937965393066 4.155851364135742 21.8271484375 4.450580596923828 21.95092964172363 C 4.556671142578125 21.99808883666992 4.674564361572266 22.00988006591797 4.786561965942383 21.9921989440918 L 10.55722236633301 20.97834968566895 C 11.71254348754883 21.39686012268066 12.92685222625732 21.60904884338379 14.15284156799316 21.60315895080566 C 20.11802101135254 21.60315895080566 24.96915054321289 16.75202941894531 24.96915054321289 10.78684902191162 C 24.98094177246094 4.839338302612305 20.16518020629883 0.005889892578125 14.21768188476562 0 C 14.21178150177002 0 14.20000171661377 0 14.18231105804443 0 M 13.69897174835205 9.820149421691895 L 10.51596069335938 9.820149421691895 C 10.19177055358887 9.820149421691895 9.926521301269531 9.554899215698242 9.926521301269531 9.230709075927734 C 9.926521301269531 8.906518936157227 10.19177055358887 8.64125919342041 10.51596069335938 8.64125919342041 L 13.69897174835205 8.64125919342041 C 14.02316188812256 8.64125919342041 14.28841114044189 8.906518936157227 14.28841114044189 9.230709075927734 C 14.28841114044189 9.554899215698242 14.02316188812256 9.820149421691895 13.69897174835205 9.820149421691895 M 17.82508087158203 12.76737880706787 L 10.51596069335938 12.76737880706787 C 10.19177055358887 12.76737880706787 9.926521301269531 12.50212955474854 9.926521301269531 12.17792892456055 C 9.926521301269531 11.85373878479004 10.19177055358887 11.5884895324707 10.51596069335938 11.5884895324707 L 17.82508087158203 11.5884895324707 C 18.1492805480957 11.5884895324707 18.41453170776367 11.85373878479004 18.41453170776367 12.17792892456055 C 18.41453170776367 12.50212955474854 18.1492805480957 12.76737880706787 17.82508087158203 12.76737880706787 M 14.18231105804443 -2 L 14.21768188476562 -2 C 17.63069152832031 -1.996620178222656 20.83587074279785 -0.6636009216308594 23.24477195739746 1.753509521484375 C 25.65323066711426 4.170188903808594 26.97591209411621 7.379698753356934 26.96915054321289 10.79080867767334 C 26.96915054321289 17.85335731506348 21.22058486938477 23.60245704650879 14.15423774719238 23.60315895080566 L 14.10316181182861 23.60327911376953 C 12.84621047973633 23.60327911376953 11.60377502441406 23.41276168823242 10.40184020996094 23.03628158569336 L 5.098171234130859 23.96776962280273 C 4.962612152099609 23.98915863037109 4.824460983276367 24 4.687570571899414 24 C 4.329189300537109 24 3.982906341552734 23.92841339111328 3.657991409301758 23.78720283508301 C 3.028390884399414 23.51723098754883 2.540739059448242 23.01813316345215 2.283601760864258 22.3798885345459 C 2.023330688476562 21.73382949829102 2.031850814819336 21.02593994140625 2.307621002197266 20.38662910461426 L 3.433849334716797 17.7671947479248 C 2.093507766723633 15.70632934570312 1.366001129150391 13.2803373336792 1.366001129150391 10.81631946563721 C 1.366001129150391 3.749378204345703 7.115371704101562 -2 14.18231105804443 -2 Z" stroke="none" fill="#e0e0e0"/>
      </g>
    </g>
  </g>
</svg>
