<svg xmlns="http://www.w3.org/2000/svg" width="28" height="28" viewBox="0 0 28 28">
  <g id="list" transform="translate(2 2)">
    <g id="Group_123" data-name="Group 123">
      <g id="Path_373" data-name="Path 373" fill="none">
        <path d="M21.429,0H2.571A2.571,2.571,0,0,0,0,2.571V21.429A2.571,2.571,0,0,0,2.571,24H21.429A2.571,2.571,0,0,0,24,21.429V2.571A2.571,2.571,0,0,0,21.429,0ZM7.714,18.857H5.143a.857.857,0,1,1,0-1.714H7.714a.857.857,0,1,1,0,1.714Zm0-6H5.143a.857.857,0,1,1,0-1.714H7.714a.857.857,0,1,1,0,1.714Zm0-6H5.143a.857.857,0,1,1,0-1.714H7.714a.857.857,0,1,1,0,1.714Zm11.143,12H11.143a.857.857,0,1,1,0-1.714h7.714a.857.857,0,1,1,0,1.714Zm0-6H11.143a.857.857,0,0,1,0-1.714h7.714a.857.857,0,0,1,0,1.714Zm0-6H11.143a.857.857,0,0,1,0-1.714h7.714a.857.857,0,0,1,0,1.714Z" stroke="none"/>
        <path d="M 2.571426391601562 0 C 1.151268005371094 0 -1.9073486328125e-06 1.151269912719727 -1.9073486328125e-06 2.571430206298828 L -1.9073486328125e-06 21.42856979370117 C -1.9073486328125e-06 22.84873008728027 1.151268005371094 24 2.571426391601562 24 L 21.42856788635254 24 C 22.84872627258301 24 23.99999618530273 22.84873008728027 23.99999618530273 21.42856979370117 L 23.99999618530273 2.571430206298828 C 23.99998664855957 1.151269912719727 22.84872627258301 0 21.42856788635254 0 L 2.571426391601562 0 M 18.85713768005371 6.857120513916016 L 11.14286708831787 6.857120513916016 C 10.66945743560791 6.857120513916016 10.28570747375488 6.473369598388672 10.28570747375488 5.999959945678711 C 10.28570747375488 5.526559829711914 10.66945743560791 5.142799377441406 11.14286708831787 5.142799377441406 L 18.85713768005371 5.142799377441406 C 19.33054733276367 5.142799377441406 19.71429824829102 5.526559829711914 19.71429824829102 5.999959945678711 C 19.71429824829102 6.473369598388672 19.33049774169922 6.857120513916016 18.85713768005371 6.857120513916016 M 7.714277267456055 6.857120513916016 L 5.142856597900391 6.857120513916016 C 4.66944694519043 6.857120513916016 4.285697937011719 6.473369598388672 4.285697937011719 5.999959945678711 C 4.285697937011719 5.526559829711914 4.66944694519043 5.142850875854492 5.142856597900391 5.142850875854492 L 7.714277267456055 5.142850875854492 C 8.187677383422852 5.142850875854492 8.571436882019043 5.526609420776367 8.571436882019043 6.000009536743164 C 8.571436882019043 6.473419189453125 8.187677383422852 6.857120513916016 7.714277267456055 6.857120513916016 M 7.714277267456055 12.85713005065918 L 5.142856597900391 12.85713005065918 C 4.66944694519043 12.85713005065918 4.285697937011719 12.47338008880615 4.285697937011719 11.99997043609619 C 4.285697937011719 11.52657032012939 4.66944694519043 11.14280986785889 5.142856597900391 11.14280986785889 L 7.714277267456055 11.14280986785889 C 8.187677383422852 11.14280986785889 8.571436882019043 11.52657032012939 8.571436882019043 11.99997043609619 C 8.571436882019043 12.47338008880615 8.187677383422852 12.85713005065918 7.714277267456055 12.85713005065918 M 18.85713768005371 12.85713005065918 L 11.14286708831787 12.85713005065918 C 10.66945743560791 12.85713005065918 10.28570747375488 12.47338008880615 10.28570747375488 11.99997043609619 C 10.28570747375488 11.52657032012939 10.66945743560791 11.14280986785889 11.14286708831787 11.14280986785889 L 18.85713768005371 11.14280986785889 C 19.33054733276367 11.14280986785889 19.71429824829102 11.52657032012939 19.71429824829102 11.99997043609619 C 19.71429824829102 12.47338008880615 19.33049774169922 12.85713005065918 18.85713768005371 12.85713005065918 M 7.714277267456055 18.85713958740234 L 5.142856597900391 18.85713958740234 C 4.66944694519043 18.85713958740234 4.285697937011719 18.47339057922363 4.285697937011719 17.99999046325684 C 4.285697937011719 17.52658081054688 4.66944694519043 17.14282989501953 5.142856597900391 17.14282989501953 L 7.714277267456055 17.14282989501953 C 8.187677383422852 17.14282989501953 8.571436882019043 17.52658081054688 8.571436882019043 17.99999046325684 C 8.571436882019043 18.47339057922363 8.187677383422852 18.85713958740234 7.714277267456055 18.85713958740234 M 18.85713768005371 18.85713958740234 L 11.14286708831787 18.85713958740234 C 10.66945743560791 18.85713958740234 10.28570747375488 18.47339057922363 10.28570747375488 17.99999046325684 C 10.28570747375488 17.52658081054688 10.66945743560791 17.14282989501953 11.14286708831787 17.14282989501953 L 18.85713768005371 17.14282989501953 C 19.33054733276367 17.14282989501953 19.71429824829102 17.52658081054688 19.71429824829102 17.99999046325684 C 19.71429824829102 18.47339057922363 19.33049774169922 18.85713958740234 18.85713768005371 18.85713958740234 M 2.571426391601562 -2 L 21.42856788635254 -2 C 23.94924736022949 -2 25.99997711181641 0.05072975158691406 25.99999618530273 2.571420669555664 L 25.99999618530273 21.42856979370117 C 25.99999618530273 23.94927024841309 23.94926643371582 26 21.42856788635254 26 L 2.571426391601562 26 C 0.05072784423828125 26 -2.000001907348633 23.94927024841309 -2.000001907348633 21.42856979370117 L -2.000001907348633 2.571430206298828 C -2.000001907348633 0.05072975158691406 0.05072784423828125 -2 2.571426391601562 -2 Z" stroke="none" fill="#e0e0e0"/>
      </g>
    </g>
  </g>
</svg>
