<svg xmlns="http://www.w3.org/2000/svg" width="84.205" height="24" viewBox="0 0 84.205 24">
  <g id="myzoo" transform="translate(-48.535 654.815)">
    <g id="Group_117" data-name="Group 117" transform="translate(48.535 -654.815)">
      <path id="Path_347" data-name="Path 347" d="M273.424-216.851c-.132.036-.216.228-.252.612-.036.312-.156,1.044-.264,1.644s-.216,1.32-.252,1.62a4.62,4.62,0,0,1-.156.78,8.408,8.408,0,0,0-.252,1.26c-.084.564-.192,1.32-.264,1.68s-.132.876-.168,1.14a4.444,4.444,0,0,1-.132.66c-.036.1-.084.264-.108.36-.072.4-.312,2-.372,2.46a2.591,2.591,0,0,1-.132.66,11.807,11.807,0,0,0-.228,1.26c-.084.588-.216,1.344-.276,1.68s-.168.9-.24,1.26-.144.888-.168,1.164l-.06.516h3.18l.132-.4a6.865,6.865,0,0,0,.216-1.1c.048-.384.108-.816.144-.96a5.318,5.318,0,0,0,.12-.78,1.854,1.854,0,0,1,.168-.66,1.3,1.3,0,0,0,.108-.624,1.837,1.837,0,0,1,.12-.732,5.468,5.468,0,0,0,.228-1.164c.072-.528.18-1.26.252-1.62s.18-1.092.252-1.62a4.569,4.569,0,0,1,.24-1.164,1.787,1.787,0,0,0,.108-.636c0-.228.048-.42.1-.42.2,0,.384.3.384.636,0,.192.048.312.12.264s.12.084.12.288.048.372.108.372.12.1.12.2c.012.42.156,1,.264,1,.06,0,.108.1.108.2a6.275,6.275,0,0,0,.528,1.56.734.734,0,0,1,.072.36c0,.156.06.276.12.276s.12.1.12.2a7.379,7.379,0,0,0,.492,1.62,1.2,1.2,0,0,1,.108.444.388.388,0,0,0,.108.3,1.1,1.1,0,0,1,.192.5,3.1,3.1,0,0,0,.168.636,8.658,8.658,0,0,1,.312.852c.108.36.24.768.3.9s.192.48.3.78l.192.54,1.452-.036c1.5-.036,1.776-.132,1.776-.588a6.36,6.36,0,0,1,.312-1.056c.18-.456.36-.948.408-1.08.288-.792,1.08-3.324,1.08-3.48,0-.1.06-.18.12-.18s.12-.1.12-.216a6.355,6.355,0,0,1,.528-1.548.713.713,0,0,0,.072-.348.474.474,0,0,1,.12-.348c.072-.036.12-.192.12-.336a1.736,1.736,0,0,1,.18-.612,1.566,1.566,0,0,0,.18-.54.686.686,0,0,1,.1-.324,2.186,2.186,0,0,0,.264-.624c.084-.276.228-.5.312-.5.168,0,.228.168.348,1.02.036.264.1.636.12.84s.108.708.18,1.14c.168,1.212.432,2.664.624,3.48.132.588.252,1.38.48,3.144a5.142,5.142,0,0,0,.252,1.248,1.017,1.017,0,0,1,.084.492v.4h3.385l-.084-.276a17.95,17.95,0,0,1-.36-2.064c-.036-.264-.12-.756-.18-1.08s-.168-.948-.24-1.38-.144-.888-.168-1.02-.108-.588-.18-1.02-.18-1.08-.252-1.44-.132-.864-.156-1.1a1.245,1.245,0,0,0-.108-.528,1.357,1.357,0,0,1-.1-.648,1.546,1.546,0,0,0-.108-.672,1.7,1.7,0,0,1-.168-.648,18.855,18.855,0,0,0-.456-3,2.53,2.53,0,0,1-.145-.72c-.048-.36-.132-.96-.2-1.32a5.33,5.33,0,0,1-.132-.9,2.27,2.27,0,0,0-.12-.612l-.12-.384-1.368-.012a12.73,12.73,0,0,0-1.644.048c-.312.084-.372.216-.888,1.824a4.694,4.694,0,0,1-.432,1.116c-.06,0-.1.132-.1.3a1.361,1.361,0,0,1-.108.516c-.06.108-.276.744-.492,1.4s-.42,1.308-.48,1.44-.384,1.1-.732,2.16-.66,2.028-.72,2.16-.24.648-.408,1.14-.336.972-.372,1.068c-.084.24-.4-.2-.408-.564,0-.144-.048-.264-.1-.264a3.72,3.72,0,0,1-.468-1.476c-.036-.18-.108-.324-.168-.324s-.108-.084-.108-.192a14.054,14.054,0,0,0-.72-2.232,1.024,1.024,0,0,1-.12-.444.388.388,0,0,0-.108-.3,1.392,1.392,0,0,1-.192-.588,2.227,2.227,0,0,0-.18-.624,5.041,5.041,0,0,1-.288-.84c-.12-.4-.252-.8-.3-.9s-.18-.5-.3-.9a7.854,7.854,0,0,0-.324-.924,1.092,1.092,0,0,1-.108-.4,1.1,1.1,0,0,0-.108-.4,8.226,8.226,0,0,1-.4-.984l-.288-.78-1.488-.012A13.876,13.876,0,0,0,273.424-216.851Z" transform="translate(-270.1 216.934)" fill="#fff"/>
      <path id="Path_348" data-name="Path 348" d="M594.432-216.907a11.009,11.009,0,0,0-.073,1.68v1.6h6.121v.36a1.994,1.994,0,0,1-.24.78,2.982,2.982,0,0,0-.252.516,22.991,22.991,0,0,1-1.08,2.508,3.14,3.14,0,0,0-.228.7c0,.108-.048.156-.12.12s-.12.036-.12.156a2.936,2.936,0,0,1-.288.828,6.216,6.216,0,0,0-.673,1.632.272.272,0,0,1-.1.228,6.708,6.708,0,0,0-.744,1.644.123.123,0,0,1-.119.132c-.061,0-.12.108-.12.24a2.419,2.419,0,0,1-.3.78c-.167.3-.276.54-.24.54s-.012.144-.107.324a12.142,12.142,0,0,0-.744,1.716.341.341,0,0,1-.156.216.24.24,0,0,0-.132.228,1.314,1.314,0,0,1-.167.492,3.216,3.216,0,0,0-.36.888.488.488,0,0,1-.1.168.272.272,0,0,0-.1.192c0,.048,2.544.1,5.641.1h5.64v-3.12h-3.108a24.368,24.368,0,0,1-3.18-.108,1.1,1.1,0,0,1,.156-.564,1.217,1.217,0,0,0,.18-.54c-.024-.048.036-.144.132-.228a.518.518,0,0,0,.181-.288,3.226,3.226,0,0,1,.3-.72,3.857,3.857,0,0,0,.3-.684,9.471,9.471,0,0,1,.42-.984c.229-.5.444-1.044.492-1.212s.108-.312.156-.312.156-.2.24-.456.312-.768.492-1.164.4-.924.48-1.176.216-.444.264-.444.1-.072.1-.168a1.6,1.6,0,0,1,.179-.5,1.651,1.651,0,0,0,.18-.564c0-.108.06-.2.12-.2s.12-.084.12-.18a.924.924,0,0,1,.12-.4c.168-.312.839-1.8.839-1.884a9.5,9.5,0,0,1,.409-.936c.216-.48.479-1.068.564-1.32s.216-.444.288-.444.036-.06-.06-.12C605.437-217,594.564-217.039,594.432-216.907Z" transform="translate(-555.13 216.99)" fill="#fff"/>
      <path id="Path_349" data-name="Path 349" d="M713.8-177.6a3.568,3.568,0,0,0-.768.288.416.416,0,0,1-.288.1.551.551,0,0,0-.36.18.523.523,0,0,1-.324.18.9.9,0,0,0-.444.3,1.012,1.012,0,0,1-.383.3,10.116,10.116,0,0,0-1.549,1.56,6.223,6.223,0,0,0-.9,1.9.606.606,0,0,1-.145.36,11.82,11.82,0,0,0,0,3.864,7.165,7.165,0,0,0,.9,1.9.261.261,0,0,1,.083.216,5.355,5.355,0,0,0,1.453,1.488c.06,0,.107.084.107.192s.061.144.12.108.12-.024.12.036a3.765,3.765,0,0,0,1.356.768c.048-.012.083.036.083.1s.121.12.276.12a.833.833,0,0,1,.4.1,6.3,6.3,0,0,0,3.4.2,1.437,1.437,0,0,1,.659-.108.213.213,0,0,0,.252-.06.318.318,0,0,1,.265-.132,2.486,2.486,0,0,0,1.116-.492c0-.048.131-.12.3-.156s.3-.132.3-.192a.113.113,0,0,1,.12-.12,5.2,5.2,0,0,0,1.56-1.464.945.945,0,0,1,.24-.36.908.908,0,0,0,.24-.42c0-.1.048-.144.107-.108s.1,0,.1-.084a2.06,2.06,0,0,1,.2-.624c.12-.264.288-.612.359-.768a9.821,9.821,0,0,0,.133-2.04,6.909,6.909,0,0,0-.216-2.352,5.769,5.769,0,0,0-.829-1.6.174.174,0,0,1-.1-.156,6.641,6.641,0,0,0-2.039-2.028,2.7,2.7,0,0,1-.5-.42c-.06-.072-.132-.06-.216.06-.108.156-.12.156-.12,0,0-.12-.312-.288-.876-.468A8.606,8.606,0,0,0,713.8-177.6Zm3.145,3.012c0,.06.155.132.36.168a1.736,1.736,0,0,1,.624.324c.78.708,1.056,1.008,1.056,1.152,0,.1.048.168.107.168a1.825,1.825,0,0,1,.349.744,4.324,4.324,0,0,1,.167,1.776,3.862,3.862,0,0,1-.167,1.152,1.155,1.155,0,0,0-.132.5c-.012.192-.061.336-.12.3s-.132.072-.192.228a3.988,3.988,0,0,1-1.56,1.392,4.972,4.972,0,0,1-2.2.372,1.428,1.428,0,0,0-.564-.108c-.191,0-.4-.048-.432-.12a.28.28,0,0,0-.24-.12,2.708,2.708,0,0,1-1.271-.924c-.156-.2-.337-.348-.4-.3s-.072,0-.023-.084-.013-.276-.145-.468c-.288-.408-.3-.48-.312-2.208A3.479,3.479,0,0,1,712-172.2a.6.6,0,0,0,.144-.36c0-.12.061-.216.12-.216a.12.12,0,0,0,.12-.12c0-.252.841-1.02,1.4-1.308.312-.156.66-.336.756-.384A7.289,7.289,0,0,1,716.949-174.586Z" transform="translate(-655.878 182.494)" fill="#fff"/>
      <path id="Path_350" data-name="Path 350" d="M856-178a3.686,3.686,0,0,1-1.1.288c-.192.036-.336.108-.336.156s-.144.12-.324.156a7.721,7.721,0,0,0-2.8,2.328c0,.084-.048.156-.1.156a6.721,6.721,0,0,0-1.1,2.28c0,.192-.048.384-.12.42a3.987,3.987,0,0,0-.12,1.344,4.937,4.937,0,0,0,.372,2.34,1.076,1.076,0,0,1,.107.408,1.246,1.246,0,0,0,.252.54c.133.192.205.348.169.348-.252,0,1.4,1.908,2.185,2.52a7.6,7.6,0,0,0,2.5,1.08.458.458,0,0,1,.359.132,9.314,9.314,0,0,0,3.181-.18,7.731,7.731,0,0,0,3.5-2.052c.612-.7.815-.972.815-1.116a.145.145,0,0,1,.133-.144c.072,0,.1-.084.06-.2s-.048-.168,0-.12c.145.132.624-1.164.84-2.244a5.538,5.538,0,0,0,.12-1.68,5.375,5.375,0,0,0-.456-1.992c-.06,0-.1-.108-.1-.228a.421.421,0,0,0-.12-.312.145.145,0,0,1-.06-.192c.048-.06.036-.108-.024-.108s-.191-.2-.312-.456c-.24-.492-1.272-1.656-1.429-1.608-.047.012-.1-.06-.1-.156a.175.175,0,0,0-.168-.18c-.1,0-.192-.036-.217-.1a5.38,5.38,0,0,0-1.127-.744,2.227,2.227,0,0,1-.444-.168c-.216-.084-.54-.228-.744-.312A13.976,13.976,0,0,0,856-178Zm2.4,3.2c0,.06.108.12.24.12a3.45,3.45,0,0,1,1.6,1.008,4.891,4.891,0,0,1,.9,1.74,6.119,6.119,0,0,1-.2,2.94,3.951,3.951,0,0,1-2.328,2.22c-1.3.384-1.344.384-1.68.264a2.156,2.156,0,0,0-.624-.132,3.792,3.792,0,0,1-2.472-1.872,5.272,5.272,0,0,1-.181-4.056,3.467,3.467,0,0,0,.192-.516.839.839,0,0,1,.18-.228c.1-.1.24-.276.324-.384a4.3,4.3,0,0,1,1.465-.984.338.338,0,0,0,.251-.12,3.313,3.313,0,0,1,1.212-.12C857.944-174.915,858.4-174.867,858.4-174.795Z" transform="translate(-780.409 182.714)" fill="#fff"/>
      <path id="Path_351" data-name="Path 351" d="M466-174.844a3.274,3.274,0,0,0,.3.78,4.588,4.588,0,0,1,.3.72,3.745,3.745,0,0,0,.3.72,3.317,3.317,0,0,1,.3.792.351.351,0,0,0,.108.252.847.847,0,0,1,.192.408.95.95,0,0,0,.24.492,1.082,1.082,0,0,1,.228.54,3.443,3.443,0,0,0,.252.744,1.555,1.555,0,0,1,.181.54c0,.12.06.216.12.216s.12.108.12.228a.39.39,0,0,0,.108.3.753.753,0,0,1,.18.384A12.283,12.283,0,0,0,469.66-166a7.072,7.072,0,0,1,.3.756,5.035,5.035,0,0,0,.313.78,1.441,1.441,0,0,1,.168.5.558.558,0,0,0,.1.3,6.277,6.277,0,0,1,.624,1.608,4.815,4.815,0,0,1-.42,1.056,5.39,5.39,0,0,0-.42,1.032.271.271,0,0,1-.084.228,9.562,9.562,0,0,0-.876,1.716,9.6,9.6,0,0,1-.864,1.716.1.1,0,0,0-.024.156,7.371,7.371,0,0,0,1.716.108h1.644l.324-.7a4.174,4.174,0,0,0,.324-.84c0-.084.048-.144.12-.144s.108-.036.1-.1a4.14,4.14,0,0,1,.312-.8c.744-1.572.912-2,.84-2.136-.048-.084-.048-.108.012-.06a6.175,6.175,0,0,0,1.021-2.016c0-.1.06-.168.12-.168s.12-.108.12-.24.06-.24.12-.24a.111.111,0,0,0,.12-.108,7.833,7.833,0,0,1,.432-1.056c.24-.516.588-1.272.78-1.692a4.575,4.575,0,0,0,.349-.936c0-.1.06-.168.12-.168a.123.123,0,0,0,.12-.132,7.484,7.484,0,0,1,.492-1.176c.552-1.176,1.14-2.424,1.368-2.952.372-.84,1.164-2.532,1.26-2.724.3-.54.216-.576-1.5-.576h-1.608l-.192.36c-.144.264-.144.36-.036.36.084,0,.036.084-.108.18a1.041,1.041,0,0,0-.335.54c-.049.2-.132.36-.192.36s-.108.1-.108.216a.539.539,0,0,1-.083.312.3.3,0,0,0-.108.168c-.072.324-.216.624-.3.624-.06,0-.108.1-.108.216a.607.607,0,0,1-.1.324,4.8,4.8,0,0,0-.372.78c-.36.852-1.284,2.868-1.8,3.924-.228.468-.443.5-.54.1-.048-.168-.24-.66-.432-1.092a6.691,6.691,0,0,1-.36-.84,3.514,3.514,0,0,0-.18-.48c-.1-.228-.252-.588-.348-.8a2.337,2.337,0,0,1-.18-.468,3.056,3.056,0,0,0-.252-.5,4.017,4.017,0,0,1-.312-.84c-.036-.24-.12-.432-.18-.432s-.108-.084-.108-.18a1.083,1.083,0,0,0-.108-.4c-.06-.108-.156-.336-.228-.5-.348-.828-.492-1.176-.636-1.536L469.3-175h-1.644C466.372-175,466-174.964,466-174.844Z" transform="translate(-442.491 180.039)" fill="#fff"/>
    </g>
  </g>
</svg>
