<svg xmlns="http://www.w3.org/2000/svg" width="28" height="28" viewBox="0 0 28 28">
  <g id="settings" transform="translate(2 2)" fill="none">
    <path d="M21.791,9.038h-.51a9.692,9.692,0,0,0-.625-1.5l.361-.361a2.209,2.209,0,0,0,0-3.125L19.953,2.983a2.209,2.209,0,0,0-3.125,0l-.361.361a9.7,9.7,0,0,0-1.5-.625v-.51A2.212,2.212,0,0,0,12.753,0H11.247A2.212,2.212,0,0,0,9.038,2.209v.51a9.689,9.689,0,0,0-1.5.625l-.361-.361a2.209,2.209,0,0,0-3.125,0L2.983,4.047a2.209,2.209,0,0,0,0,3.125l.361.361a9.69,9.69,0,0,0-.625,1.5h-.51A2.212,2.212,0,0,0,0,11.247v1.506a2.212,2.212,0,0,0,2.209,2.209h.51a9.692,9.692,0,0,0,.625,1.5l-.361.361a2.209,2.209,0,0,0,0,3.125l1.065,1.065a2.209,2.209,0,0,0,3.125,0l.361-.361a9.7,9.7,0,0,0,1.5.625v.51A2.212,2.212,0,0,0,11.247,24h1.506a2.212,2.212,0,0,0,2.209-2.209v-.51a9.689,9.689,0,0,0,1.5-.625l.361.361a2.209,2.209,0,0,0,3.125,0l1.065-1.065a2.209,2.209,0,0,0,0-3.125l-.361-.361a9.69,9.69,0,0,0,.625-1.5h.51A2.212,2.212,0,0,0,24,12.753V11.247a2.212,2.212,0,0,0-2.209-2.209ZM12,17.222A5.222,5.222,0,1,1,17.222,12,5.228,5.228,0,0,1,12,17.222Z" stroke="none"/>
    <path d="M 11.24686717987061 1.9073486328125e-06 C 10.02863693237305 1.9073486328125e-06 9.037517547607422 0.9911327362060547 9.037517547607422 2.209362030029297 L 9.037517547607422 2.718942642211914 C 8.519587516784668 2.88441276550293 8.016386985778809 3.093282699584961 7.532966613769531 3.343452453613281 L 7.17216682434082 2.982662200927734 C 6.299690246582031 2.10914421081543 4.898830413818359 2.129631042480469 4.047296524047852 2.982381820678711 L 2.982627868652344 4.046951293945312 C 2.131746292114258 4.896892547607422 2.107137680053711 6.297611236572266 2.982337951660156 7.171882629394531 L 3.343467712402344 7.533002853393555 C 3.093297958374023 8.016422271728516 2.884468078613281 8.519532203674316 2.71894645690918 9.037551879882812 L 2.209417343139648 9.037551879882812 C 0.9911880493164062 9.037502288818359 1.71661376953125e-05 10.02863216400146 1.71661376953125e-05 11.24686145782471 L 1.71661376953125e-05 12.75314235687256 C 1.71661376953125e-05 13.97138214111328 0.9911880493164062 14.96250152587891 2.209417343139648 14.96250152587891 L 2.71894645690918 14.96250152587891 C 2.884468078613281 15.48047161102295 3.093297958374023 15.98363208770752 3.343467712402344 16.4670524597168 L 2.982627868652344 16.8278923034668 C 2.107696533203125 17.70188140869141 2.131137847900391 19.10250091552734 2.982337951660156 19.95282173156738 L 4.046916961669922 21.0173511505127 C 4.896717071533203 21.86827087402344 6.297624588012695 21.89292335510254 7.171846389770508 21.01767158508301 L 7.532966613769531 20.65655136108398 C 8.016386985778809 20.90667152404785 8.519587516784668 21.11555099487305 9.037517547607422 21.28106117248535 L 9.037517547607422 21.79064178466797 C 9.037517547607422 23.00888252258301 10.02868747711182 24.00000190734863 11.24691677093506 24.00000190734863 L 12.75315761566162 24.00000190734863 C 13.97138690948486 24.00000190734863 14.96255683898926 23.00887107849121 14.96255683898926 21.79064178466797 L 14.96255683898926 21.28106117248535 C 15.48047733306885 21.11559295654297 15.98368740081787 20.9067211151123 16.46710777282715 20.65655136108398 L 16.82789611816406 21.0173511505127 C 17.70038795471191 21.89086151123047 19.1011962890625 21.87038230895996 19.95277786254883 21.01763153076172 L 21.01744651794434 19.9530029296875 C 21.86832809448242 19.10306167602539 21.89293670654297 17.70234298706055 21.01772689819336 16.82808303833008 L 20.65660667419434 16.46695137023926 C 20.90677642822266 15.9835319519043 21.11560821533203 15.4804220199585 21.2811164855957 14.96241188049316 L 21.79065704345703 14.96241188049316 C 23.00888633728027 14.96241188049316 24.00005722045898 13.97128200531006 24.00005722045898 12.7530517578125 L 24.00005722045898 11.24677181243896 C 24.0000171661377 10.02863216400146 23.00883674621582 9.037502288818359 21.79060745239258 9.037502288818359 L 21.28107643127441 9.037502288818359 C 21.11555671691895 8.519532203674316 20.9067268371582 8.016382217407227 20.65655708312988 7.532962799072266 L 21.01739692687988 7.172111511230469 C 21.89232635498047 6.298131942749023 21.86888694763184 4.897500991821289 21.01768684387207 4.047191619873047 L 19.9531078338623 2.982662200927734 C 19.10330581665039 2.131742477416992 17.70239639282227 2.107080459594727 16.82817649841309 2.982332229614258 L 16.46705627441406 3.343452453613281 C 15.9836368560791 3.093332290649414 15.48043727874756 2.884452819824219 14.9625072479248 2.718942642211914 L 14.9625072479248 2.209362030029297 C 14.9625072479248 0.9911327362060547 13.97138690948486 1.9073486328125e-06 12.75310707092285 1.9073486328125e-06 L 11.24686717987061 1.9073486328125e-06 M 12.00000762939453 17.22188186645508 C 9.120616912841797 17.22188186645508 6.77813720703125 14.87935161590576 6.77813720703125 12.00000190734863 C 6.77813720703125 9.120661735534668 9.120616912841797 6.778131484985352 12.00000762939453 6.778131484985352 C 14.87939739227295 6.778131484985352 17.22188758850098 9.120661735534668 17.22188758850098 12.00000190734863 C 17.22188758850098 14.87935161590576 14.87939739227295 17.22188186645508 12.00000762939453 17.22188186645508 M 11.24686717987061 -1.999998092651367 L 12.75310707092285 -1.999998092651367 C 14.54065990447998 -1.999998092651367 16.07149887084961 -0.8801307678222656 16.68082809448242 0.6949691772460938 C 17.21110534667969 0.4591827392578125 17.78978157043457 0.3351516723632812 18.38743782043457 0.3351516723632812 C 19.51481628417969 0.3351726531982422 20.57340621948242 0.7734928131103516 21.36824798583984 1.569372177124023 L 22.4318675994873 2.632942199707031 C 23.22673797607422 3.426992416381836 23.66487693786621 4.485292434692383 23.66486740112305 5.612201690673828 C 23.66486167907715 6.209878921508789 23.54079818725586 6.788671493530273 23.30489921569824 7.319133758544922 C 24.8799991607666 7.928432464599609 25.99999618530273 9.459234237670898 26.00005722045898 11.24670219421387 L 26.00005722045898 12.7530517578125 C 26.00005722045898 14.54058933258057 24.88018035888672 16.0714111328125 23.30506706237793 16.68073463439941 C 23.54084587097168 17.21102905273438 23.66490745544434 17.78979682922363 23.66490745544434 18.387451171875 C 23.66489791870117 19.51459121704102 23.22664642333984 20.57311248779297 22.43087768554688 21.36799240112305 L 21.36696624755859 22.43187141418457 C 20.57330703735352 23.22662162780762 19.51508712768555 23.66486167907715 18.38824653625488 23.66486167907715 C 17.7903995513916 23.66486167907715 17.21148681640625 23.54079437255859 16.68094062805176 23.30487251281738 C 16.07161140441895 24.87997245788574 14.54070949554443 26.00000190734863 12.75315761566162 26.00000190734863 L 11.24691677093506 26.00000190734863 C 9.459364891052246 26.00000190734863 7.928525924682617 24.8801326751709 7.319196701049805 23.30503463745117 C 6.788902282714844 23.54082107543945 6.210178375244141 23.66486167907715 5.612497329711914 23.66486167907715 C 4.485206604003906 23.66486167907715 3.426637649536133 23.22654151916504 2.631776809692383 22.43064117431641 L 1.568157196044922 21.3670711517334 C 0.7732772827148438 20.57301139831543 0.3351478576660156 19.51471138000488 0.3351573944091797 18.3878116607666 C 0.3351631164550781 17.79013442993164 0.4592304229736328 17.21133232116699 0.69512939453125 16.68087005615234 C -0.8799839019775391 16.07154846191406 -1.999982833862305 14.54067897796631 -1.999982833862305 12.75314235687256 L -1.999982833862305 11.24686145782471 C -1.999982833862305 9.459347724914551 -0.8800773620605469 7.928522109985352 0.6950016021728516 7.319206237792969 C 0.4592189788818359 6.788902282714844 0.3351612091064453 6.210142135620117 0.3351669311523438 5.612491607666016 C 0.3351764678955078 4.485342025756836 0.7734375 3.426841735839844 1.569196701049805 2.631961822509766 L 2.633146286010742 1.56810188293457 C 3.426717758178711 0.7734012603759766 4.48493766784668 0.3351516723632812 5.611806869506836 0.3351516723632812 C 6.209665298461914 0.3351516723632812 6.788578033447266 0.4592151641845703 7.319128036499023 0.6951389312744141 C 7.928451538085938 -0.8799610137939453 9.459338188171387 -1.999998092651367 11.24686717987061 -1.999998092651367 Z M 12.00000762939453 15.22188186645508 C 13.77655696868896 15.22188186645508 15.22188758850098 13.77655220031738 15.22188758850098 12.00000190734863 C 15.22188758850098 10.22345161437988 13.77655696868896 8.778131484985352 12.00000762939453 8.778131484985352 C 10.22345733642578 8.778131484985352 8.77813720703125 10.22345161437988 8.77813720703125 12.00000190734863 C 8.77813720703125 13.77655220031738 10.22345733642578 15.22188186645508 12.00000762939453 15.22188186645508 Z" stroke="none" fill="#e0e0e0"/>
  </g>
</svg>
